HIERARCHY
ROOT Hips
{
	OFFSET 0.00000 0.00000 0.00000
	CHANNELS 6 Xposition Yposition Zposition Zrotation Yrotation Xrotation 
	JOINT LHipJoint
	{
		OFFSET 0 0 0
		CHANNELS 3 Zrotation Yrotation Xrotation
		JOINT LeftHip
		{
			OFFSET 1.54859 -1.61379 0.86856
			CHANNELS 3 Zrotation Yrotation Xrotation
			JOINT LeftKnee
			{
				OFFSET 2.25087 -6.18423 0.00000
				CHANNELS 3 Zrotation Yrotation Xrotation
				JOINT LeftAnkle
				{
					OFFSET 2.40328 -6.60297 0.00000
					CHANNELS 3 Zrotation Yrotation Xrotation
					JOINT LeftToe
					{
						OFFSET 0.17435 -0.47901 2.02453
						CHANNELS 3 Zrotation Yrotation Xrotation
						End Site
						{
							OFFSET 0.00000 -0.00000 1.04844
						}
					}
				}
			}
		}
	}
	JOINT RHipJoint
	{
		OFFSET 0 0 0
		CHANNELS 3 Zrotation Yrotation Xrotation
		JOINT RightHip
		{
			OFFSET -1.54669 -1.61379 0.86856
			CHANNELS 3 Zrotation Yrotation Xrotation
			JOINT RightKnee
			{
				OFFSET -2.28132 -6.26789 0.00000
				CHANNELS 3 Zrotation Yrotation Xrotation
				JOINT RightAnkle
				{
					OFFSET -2.51636 -6.91365 0.00000
					CHANNELS 3 Zrotation Yrotation Xrotation
					JOINT RightToe
					{
						OFFSET -0.15124 -0.41552 2.21090
						CHANNELS 3 Zrotation Yrotation Xrotation
						End Site
						{
							OFFSET -0.00000 -0.00000 1.13399
						}
					}
				}
			}
		}
	}
	JOINT lowerback
	{
		OFFSET 0 0 0
		CHANNELS 3 Zrotation Yrotation Xrotation
		JOINT Chest
		{
			OFFSET -0.04287 2.26161 -0.25690
			CHANNELS 3 Zrotation Yrotation Xrotation
			JOINT Chest2
			{
				OFFSET 0.02248 2.28395 -0.10140
				CHANNELS 3 Zrotation Yrotation Xrotation
				JOINT lowerneck
				{
					OFFSET 0 0 0
					CHANNELS 3 Zrotation Yrotation Xrotation
					JOINT Neck
					{
						OFFSET -0.11644 1.38496 0.11345
						CHANNELS 3 Zrotation Yrotation Xrotation
						JOINT Head
						{
							OFFSET 0.29383 1.36600 0.06642
							CHANNELS 3 Zrotation Yrotation Xrotation
							End Site
							{
								OFFSET 0.11075 1.41395 -0.00294
							}
						}
					}
				}
				JOINT LeftCollar
				{
					OFFSET 0 0 0
					CHANNELS 3 Zrotation Yrotation Xrotation
					JOINT LeftShoulder
					{
						OFFSET 3.51628 0.59542 -0.30346
CHANNELS 3 Zrotation Xrotation Yrotation
						JOINT LeftElbow
						{
OFFSET 0 -4.764050 0.000000
CHANNELS 3 Zrotation Xrotation Yrotation
							JOINT LeftWrist
							{
OFFSET 0 -3.137590 -0.000000
CHANNELS 3 Zrotation Xrotation Yrotation
								JOINT lhand
								{
									OFFSET 0 0 0
CHANNELS 3 Zrotation Xrotation Yrotation
									JOINT LFingers
									{
OFFSET 0 -0.732260 -0.000000
CHANNELS 3 Zrotation Xrotation Yrotation
										End Site
										{
OFFSET 0 -0.590370 -0.000000
										}
									}
								}
								JOINT LThumb
								{
OFFSET 0 0.000000 0.000000
CHANNELS 3 Zrotation Xrotation Yrotation
									End Site
									{
OFFSET 0 -0.599380 0.599380
									}
								}
							}
						}
					}
				}
				JOINT RightCollar
				{
					OFFSET 0 0 0
					CHANNELS 3 Zrotation Yrotation Xrotation
					JOINT RightShoulder
					{
						OFFSET -3.30990 0.84213 -0.36430
CHANNELS 3 Zrotation Xrotation Yrotation
						JOINT RightElbow
						{
OFFSET 0 -5.101610 -0.000000
CHANNELS 3 Zrotation Xrotation Yrotation
							JOINT RightWrist
							{
OFFSET 0 -3.232670 -0.000000
CHANNELS 3 Zrotation Xrotation Yrotation
								JOINT rhand
								{
									OFFSET 0 0 0
CHANNELS 3 Zrotation Xrotation Yrotation
									JOINT RFingers
									{
OFFSET 0 -0.702000 -0.000000
CHANNELS 3 Zrotation Xrotation Yrotation
										End Site
										{
OFFSET 0 -0.565970 -0.000000
										}
									}
								}
								JOINT RThumb
								{
OFFSET 0 0.000000 0.000000
CHANNELS 3 Zrotation Xrotation Yrotation
									End Site
									{
OFFSET 0 -0.574610 0.574610
									}
								}
							}
						}
					}
				}
			}
		}
	}
}
MOTION
Frames: 5
Frame Time: 0.008333333333333333
-3.993507 14.781881 -3.639919 1.507070 14.941559 17.432262 0.000000 0.000000 0.000000 -14.545738 5.528087 -39.203831 10.118507 17.475615 59.883197 -0.166994 -23.056755 -15.029958 1.234729 -7.040660 -19.838353 0.000000 0.000000 0.000000 4.779796 5.640885 -20.636159 -13.753683 -19.032957 71.446889 -0.164442 -1.002844 -8.103138 -4.520072 12.821988 -38.705860 -7.866994 -1.214566 25.437178 0.200865 -3.244494 8.970727 5.600703 -1.651775 -3.645266 -12.068297 -2.859502 -12.053281 18.957248 -0.977715 -14.593241 8.009880 -0.234656 -1.969067 0.000000 0.000000 0.000000 -7.202624 -52.163199 -65.539527 23.034104 -34.091626 7.172903 17.611521 3.283346 -32.081567 0.000000 0.000000 0.000000 -7.125000 0.000000 0.000000 -17.510819 62.463428 7.601151 0.000000 0.000000 0.000000 -8.567614 -16.236720 15.835749 -56.855060 -55.408477 -31.738611 -39.901664 -41.944251 -34.370645 0.000000 0.000000 0.000000 7.125000 0.000000 0.000000 -3.766171 -11.659811 -4.458096
-3.911520 14.783842 -3.576356 1.450609 15.287277 17.390986 0.000000 0.000000 0.000000 -14.722015 5.343460 -38.622493 10.036520 17.429644 59.609392 -0.122182 -23.058865 -15.362274 1.155387 -6.812380 -19.165460 0.000000 0.000000 0.000000 4.927188 5.465054 -21.538878 -14.093250 -19.133071 72.481666 -0.175526 -1.439731 -8.594614 -4.549015 12.856964 -38.835779 -7.727981 -1.292898 25.455335 0.237594 -3.311682 8.917981 5.582309 -1.677925 -3.710998 -11.964290 -2.861107 -11.905443 18.898945 -1.048945 -14.280924 7.960640 -0.275367 -1.893202 0.000000 0.000000 0.000000 -7.839472 -51.740397 -64.416582 21.889912 -32.784678 6.556708 18.291962 2.801439 -31.034101 0.000000 0.000000 0.000000 -7.125000 0.000000 0.000000 -15.978058 61.620885 6.647053 0.000000 0.000000 0.000000 -8.315443 -16.570760 16.779446 -56.247780 -55.217432 -31.240033 -39.749993 -40.941954 -34.475335 0.000000 0.000000 0.000000 7.125000 0.000000 0.000000 -3.657112 -11.713033 -4.331089
-3.829533 14.785803 -3.512793 1.394148 15.632995 17.349711 0.000000 0.000000 0.000000 -14.898291 5.158833 -38.041155 9.954533 17.383673 59.335587 -0.077370 -23.060975 -15.694590 1.076044 -6.584101 -18.492566 0.000000 0.000000 0.000000 5.074581 5.289223 -22.441596 -14.432817 -19.233185 73.516443 -0.186610 -1.876619 -9.086090 -4.577959 12.891940 -38.965698 -7.588969 -1.371230 25.473491 0.274323 -3.378871 8.865234 5.563914 -1.704076 -3.776731 -11.860283 -2.862712 -11.757605 18.840642 -1.120174 -13.968607 7.911401 -0.316078 -1.817336 0.000000 0.000000 0.000000 -8.476319 -51.317595 -63.293637 20.745719 -31.477730 5.940513 18.972404 2.319531 -29.986635 0.000000 0.000000 0.000000 -7.125000 0.000000 0.000000 -14.445297 60.778342 5.692955 0.000000 0.000000 0.000000 -8.063271 -16.904799 17.723143 -55.640500 -55.026386 -30.741454 -39.598321 -39.939656 -34.580025 0.000000 0.000000 0.000000 7.125000 0.000000 0.000000 -3.548054 -11.766254 -4.204082
-3.747994 14.788041 -3.448665 1.319301 15.939645 17.300986 0.000000 0.000000 0.000000 -15.065296 5.016152 -37.456644 9.870618 17.336315 59.054919 -0.028663 -23.050888 -16.044091 1.004499 -6.377493 -17.883836 0.000000 0.000000 0.000000 5.235460 5.147409 -23.346318 -14.767015 -19.329352 74.533118 -0.197238 -2.331424 -9.588348 -4.591693 12.908309 -39.026871 -7.461272 -1.437922 25.487798 0.309269 -3.434187 8.810970 5.546774 -1.724689 -3.843276 -11.756369 -2.853162 -11.621558 18.777082 -1.177669 -13.634590 7.860598 -0.348628 -1.735713 0.000000 0.000000 0.000000 -9.062871 -50.887184 -62.093711 19.635968 -30.194742 5.350277 19.624353 2.015672 -28.935523 0.000000 0.000000 0.000000 -7.125000 0.000000 0.000000 -12.971870 59.918318 4.782358 0.000000 0.000000 0.000000 -7.797825 -17.244116 18.680639 -55.021869 -54.829003 -30.234230 -39.432446 -38.925743 -34.684892 0.000000 0.000000 0.000000 7.125000 0.000000 0.000000 -3.431563 -11.814271 -4.067968
-3.669336 14.792053 -3.380912 1.126472 15.995600 17.204468 0.000000 0.000000 0.000000 -15.172809 5.142625 -36.851771 9.774338 17.280063 58.730210 0.045033 -22.962542 -16.503860 0.982985 -6.309948 -17.686817 0.000000 0.000000 0.000000 5.482877 5.223869 -24.263895 -15.066763 -19.400195 75.433638 -0.204934 -2.901202 -10.159791 -4.507834 12.805283 -38.646919 -7.406178 -1.429929 25.477397 0.332775 -3.413327 8.746961 5.537681 -1.709771 -3.915041 -11.653046 -2.772037 -11.561175 18.679791 -1.147032 -13.161330 7.799769 -0.328807 -1.617146 0.000000 0.000000 0.000000 -9.326692 -50.407951 -60.399829 18.747216 -29.065497 4.926613 20.093483 2.854293 -27.861015 0.000000 0.000000 0.000000 -7.125000 0.000000 0.000000 -11.879176 58.946123 4.150889 0.000000 0.000000 0.000000 -7.447204 -17.617292 19.726679 -54.330403 -54.590946 -29.671524 -39.175431 -37.837299 -34.790889 0.000000 0.000000 0.000000 7.125000 0.000000 0.000000 -3.267381 -11.828892 -3.873416
